# xmcd
#
# Track frame offsets: 
#        150
#        10658
#        21548
#        30690
#        39815
#        49702
#        59136
#        70224
#        80199
#        89650
#        98930
#        108742
#        117647
#        132866
#        146854
#        161454
#        176451
#        191271
#        201993
#        214357
#        223967
#        234721
#        247493
#
# Disc length: 3435 seconds
#
# Revision: 0
# Processed by: cddbd v1.5.2PL0 Copyright (c) Steve Scherf et al.
# Submitted via: ExactAudioCopy v1.1
#
DISCID=6e0d6917
DTITLE=Jim Reeves - CD05_Milestones Of A Country Legend
DYEAR=2017
DGENRE=Country
TTITLE0=He'll Have to Go 
TTITLE1=I Love You More
TTITLE2=Wishful Thinking
TTITLE3=Honey Won't You Please Come Home
TTITLE4=I'm Beginning to Forget You
TTITLE5=Billy Bayou
TTITLE6=If Heartache is the Fashion
TTITLE7=Partners
TTITLE8=Theme of Love 
TTITLE9=I'd Like to Be 
TTITLE10=After Awhile
TTITLE11=Home
TTITLE12=The Bizzard
TTITLE13=The Streets of Laredo
TTITLE14=That Silver-Haired Daddy of Mine
TTITLE15=Rodger Young 
TTITLE16=The Fool's Paradise 
TTITLE17=It's Nothin' to Me
TTITLE18=The Mighty Everglades
TTITLE19=Danny Boy
TTITLE20=The Letter Edged in Black 
TTITLE21=The Tie That Binds
TTITLE22=The Wreck of the Number Nine
EXTD=
EXTT0=
EXTT1=
EXTT2=
EXTT3=
EXTT4=
EXTT5=
EXTT6=
EXTT7=
EXTT8=
EXTT9=
EXTT10=
EXTT11=
EXTT12=
EXTT13=
EXTT14=
EXTT15=
EXTT16=
EXTT17=
EXTT18=
EXTT19=
EXTT20=
EXTT21=
EXTT22=
PLAYORDER=
